<svg width="15" height="20" viewBox="0 0 15 20" fill="none" xmlns="http://www.w3.org/2000/svg">
<path d="M11.6699 0.364829C8.76829 -0.12161 5.79036 -0.12161 2.88879 0.364829C1.82875 0.542542 0.984562 1.35634 0.772017 2.41152C-0.201693 7.24552 -0.254822 12.2198 0.615418 17.0735L0.969725 19.0496C1.07897 19.6589 1.82181 19.9025 2.27062 19.4761L6.54728 15.4133C6.95751 15.0236 7.60114 15.0236 8.01137 15.4133L12.288 19.4761C12.7368 19.9025 13.4797 19.6589 13.5889 19.0496L13.9432 17.0735C14.8135 12.2198 14.7603 7.24552 13.7866 2.41152C13.5741 1.35634 12.7299 0.542542 11.6699 0.364829Z" fill="#6C5FBC"/>
</svg>
