<svg width="209" height="182" viewBox="0 0 209 182" fill="none" xmlns="http://www.w3.org/2000/svg">
<path d="M83.7959 170.87V171.341H80.5335V171.003L82.5555 167.874H83.0238L82.5214 168.78L81.1848 170.87H83.7959ZM83.1664 167.874V172.39H82.5927V167.874H83.1664ZM85.6877 172.39H84.7449L84.7511 171.903H85.6877C86.0102 171.903 86.279 171.836 86.494 171.701C86.709 171.565 86.8703 171.375 86.9778 171.131C87.0873 170.885 87.1421 170.597 87.1421 170.268V169.992C87.1421 169.734 87.1111 169.505 87.0491 169.304C86.9871 169.101 86.8961 168.931 86.7762 168.792C86.6563 168.652 86.5095 168.545 86.3358 168.473C86.1642 168.4 85.9668 168.364 85.7435 168.364H84.7263V167.874H85.7435C86.0391 167.874 86.3089 167.924 86.5529 168.023C86.7969 168.12 87.0067 168.262 87.1824 168.448C87.3602 168.632 87.4967 168.855 87.5918 169.118C87.6869 169.378 87.7345 169.672 87.7345 169.999V170.268C87.7345 170.595 87.6869 170.89 87.5918 171.152C87.4967 171.413 87.3592 171.635 87.1793 171.819C87.0015 172.003 86.7865 172.145 86.5343 172.244C86.2841 172.341 86.0019 172.39 85.6877 172.39ZM85.0643 167.874V172.39H84.4658V167.874H85.0643Z" fill="#828282"/>
<path d="M115.44 170.921L114.981 170.803L115.207 168.555H117.524V169.085H115.694L115.558 170.313C115.64 170.266 115.745 170.221 115.871 170.18C115.999 170.139 116.146 170.118 116.311 170.118C116.52 170.118 116.707 170.154 116.873 170.227C117.038 170.297 117.179 170.398 117.294 170.53C117.412 170.663 117.502 170.822 117.564 171.008C117.626 171.194 117.657 171.402 117.657 171.631C117.657 171.848 117.627 172.048 117.567 172.23C117.509 172.412 117.421 172.571 117.304 172.707C117.186 172.842 117.037 172.946 116.857 173.021C116.679 173.095 116.469 173.132 116.227 173.132C116.046 173.132 115.873 173.108 115.71 173.058C115.548 173.006 115.404 172.929 115.275 172.825C115.149 172.72 115.046 172.59 114.965 172.435C114.887 172.277 114.837 172.093 114.816 171.883H115.362C115.387 172.052 115.437 172.195 115.511 172.311C115.586 172.426 115.683 172.514 115.803 172.574C115.925 172.632 116.066 172.661 116.227 172.661C116.364 172.661 116.485 172.637 116.59 172.59C116.696 172.542 116.785 172.474 116.857 172.385C116.929 172.296 116.984 172.189 117.021 172.062C117.061 171.936 117.08 171.795 117.08 171.638C117.08 171.495 117.061 171.363 117.021 171.241C116.982 171.119 116.923 171.012 116.845 170.921C116.768 170.83 116.674 170.76 116.562 170.71C116.451 170.659 116.323 170.633 116.178 170.633C115.986 170.633 115.84 170.659 115.741 170.71C115.643 170.762 115.543 170.832 115.44 170.921ZM119.657 173.07H118.715L118.721 172.583H119.657C119.98 172.583 120.249 172.516 120.464 172.382C120.679 172.245 120.84 172.055 120.947 171.811C121.057 171.565 121.112 171.278 121.112 170.949V170.673C121.112 170.415 121.081 170.185 121.019 169.985C120.957 169.782 120.866 169.611 120.746 169.473C120.626 169.332 120.479 169.226 120.306 169.154C120.134 169.081 119.937 169.045 119.713 169.045H118.696V168.555H119.713C120.009 168.555 120.279 168.605 120.523 168.704C120.767 168.801 120.976 168.943 121.152 169.129C121.33 169.313 121.466 169.536 121.562 169.799C121.657 170.059 121.704 170.353 121.704 170.679V170.949C121.704 171.276 121.657 171.57 121.562 171.833C121.466 172.093 121.329 172.316 121.149 172.5C120.971 172.684 120.756 172.825 120.504 172.925C120.254 173.022 119.972 173.07 119.657 173.07ZM119.034 168.555V173.07H118.436V168.555H119.034Z" fill="#828282"/>
<path d="M150.887 168.549H150.936V169.036H150.887C150.583 169.036 150.328 169.085 150.124 169.185C149.919 169.282 149.757 169.413 149.637 169.578C149.517 169.742 149.43 169.926 149.376 170.13C149.325 170.335 149.299 170.543 149.299 170.754V171.417C149.299 171.618 149.323 171.796 149.37 171.951C149.418 172.104 149.483 172.233 149.566 172.338C149.648 172.444 149.741 172.523 149.845 172.577C149.95 172.631 150.06 172.658 150.173 172.658C150.306 172.658 150.424 172.633 150.527 172.583C150.63 172.532 150.717 172.46 150.787 172.369C150.86 172.276 150.915 172.167 150.952 172.041C150.989 171.915 151.008 171.776 151.008 171.625C151.008 171.491 150.991 171.362 150.958 171.238C150.925 171.111 150.874 171 150.806 170.903C150.738 170.803 150.652 170.726 150.549 170.67C150.447 170.612 150.326 170.583 150.186 170.583C150.027 170.583 149.878 170.622 149.739 170.701C149.603 170.778 149.49 170.879 149.401 171.005C149.314 171.129 149.265 171.264 149.252 171.411L148.948 171.408C148.977 171.177 149.031 170.979 149.11 170.816C149.19 170.65 149.29 170.516 149.407 170.413C149.527 170.307 149.661 170.231 149.807 170.183C149.956 170.133 150.113 170.109 150.279 170.109C150.504 170.109 150.699 170.151 150.862 170.236C151.025 170.321 151.16 170.434 151.265 170.577C151.37 170.718 151.448 170.877 151.498 171.055C151.549 171.23 151.575 171.411 151.575 171.597C151.575 171.81 151.545 172.01 151.485 172.196C151.425 172.382 151.335 172.545 151.215 172.686C151.098 172.826 150.952 172.936 150.778 173.014C150.604 173.093 150.403 173.132 150.173 173.132C149.929 173.132 149.716 173.083 149.535 172.983C149.353 172.882 149.202 172.748 149.082 172.58C148.962 172.413 148.872 172.227 148.812 172.022C148.752 171.817 148.722 171.61 148.722 171.399V171.129C148.722 170.811 148.754 170.498 148.818 170.192C148.882 169.886 148.993 169.609 149.15 169.361C149.309 169.113 149.529 168.916 149.811 168.769C150.092 168.622 150.45 168.549 150.887 168.549ZM153.628 173.07H152.685L152.692 172.583H153.628C153.951 172.583 154.219 172.516 154.434 172.382C154.649 172.245 154.811 172.055 154.918 171.811C155.028 171.565 155.083 171.278 155.083 170.949V170.673C155.083 170.415 155.052 170.185 154.99 169.985C154.927 169.782 154.837 169.611 154.717 169.473C154.597 169.332 154.45 169.226 154.276 169.154C154.105 169.081 153.907 169.045 153.684 169.045H152.667V168.555H153.684C153.98 168.555 154.249 168.605 154.493 168.704C154.737 168.801 154.947 168.943 155.123 169.129C155.301 169.313 155.437 169.536 155.532 169.799C155.627 170.059 155.675 170.353 155.675 170.679V170.949C155.675 171.276 155.627 171.57 155.532 171.833C155.437 172.093 155.3 172.316 155.12 172.5C154.942 172.684 154.727 172.825 154.475 172.925C154.225 173.022 153.942 173.07 153.628 173.07ZM153.005 168.555V173.07H152.406V168.555H153.005Z" fill="#828282"/>
<path d="M183.009 168.555V168.878L181.139 173.07H180.535L182.401 169.026H179.958V168.555H183.009ZM185.034 173.07H184.092L184.098 172.583H185.034C185.357 172.583 185.626 172.516 185.841 172.382C186.056 172.245 186.217 172.055 186.324 171.811C186.434 171.565 186.489 171.278 186.489 170.949V170.673C186.489 170.415 186.458 170.185 186.396 169.985C186.334 169.782 186.243 169.611 186.123 169.473C186.003 169.332 185.856 169.226 185.682 169.154C185.511 169.081 185.313 169.045 185.09 169.045H184.073V168.555H185.09C185.386 168.555 185.656 168.605 185.9 168.704C186.144 168.801 186.353 168.943 186.529 169.129C186.707 169.313 186.843 169.536 186.938 169.799C187.034 170.059 187.081 170.353 187.081 170.679V170.949C187.081 171.276 187.034 171.57 186.938 171.833C186.843 172.093 186.706 172.316 186.526 172.5C186.348 172.684 186.133 172.825 185.881 172.925C185.631 173.022 185.349 173.07 185.034 173.07ZM184.411 168.555V173.07H183.812V168.555H184.411Z" fill="#828282"/>
<rect x="30.1621" y="161.626" width="27.7739" height="19.6592" rx="9.82962" fill="#E7E7E7" fill-opacity="0.92"/>
<path d="M42.7671 172.677V173.375H39.6783V172.78L41.1389 171.213C41.2857 171.05 41.4015 170.906 41.4863 170.782C41.571 170.656 41.632 170.544 41.6692 170.444C41.7085 170.343 41.7282 170.247 41.7282 170.156C41.7282 170.02 41.7054 169.903 41.6599 169.806C41.6145 169.706 41.5473 169.63 41.4584 169.576C41.3715 169.522 41.264 169.495 41.1358 169.495C40.9994 169.495 40.8815 169.528 40.7823 169.595C40.6851 169.661 40.6107 169.753 40.559 169.871C40.5094 169.989 40.4846 170.122 40.4846 170.271H39.5883C39.5883 170.002 39.6524 169.756 39.7806 169.533C39.9088 169.307 40.0897 169.128 40.3233 168.996C40.557 168.862 40.834 168.795 41.1544 168.795C41.4708 168.795 41.7375 168.846 41.9546 168.95C42.1737 169.051 42.3391 169.198 42.4507 169.39C42.5645 169.58 42.6213 169.808 42.6213 170.072C42.6213 170.221 42.5975 170.367 42.55 170.51C42.5024 170.65 42.4342 170.791 42.3453 170.931C42.2585 171.07 42.153 171.21 42.029 171.353C41.9049 171.496 41.7674 171.644 41.6165 171.796L40.8319 172.677H42.7671ZM44.8045 173.375H43.8215L43.8277 172.649H44.8045C45.0485 172.649 45.2542 172.595 45.4217 172.485C45.5891 172.373 45.7153 172.211 45.8 171.998C45.8869 171.785 45.9303 171.528 45.9303 171.226V171.006C45.9303 170.774 45.9055 170.57 45.8558 170.395C45.8083 170.219 45.737 170.071 45.6419 169.951C45.5468 169.831 45.4299 169.741 45.2914 169.681C45.1529 169.619 44.9937 169.588 44.8138 169.588H43.8029V168.86H44.8138C45.1157 168.86 45.3917 168.911 45.6419 169.015C45.8941 169.116 46.1122 169.262 46.2962 169.452C46.4802 169.642 46.6218 169.87 46.7211 170.134C46.8224 170.397 46.873 170.689 46.873 171.012V171.226C46.873 171.546 46.8224 171.839 46.7211 172.104C46.6218 172.368 46.4802 172.596 46.2962 172.786C46.1143 172.974 45.8962 173.12 45.6419 173.223C45.3896 173.324 45.1105 173.375 44.8045 173.375ZM44.3487 168.86V173.375H43.4183V168.86H44.3487Z" fill="#151515"/>
<path d="M0.994141 131.394C12.0642 131.394 13.1354 145.807 24.9196 145.807C36.7038 145.807 33.8471 104.844 44.9171 104.844C55.9871 104.844 49.9164 70.3283 65.2716 70.3283C80.6268 70.3283 73.4848 104.844 87.4116 104.844C101.338 104.844 99.1958 64.5524 108.123 64.5524C117.051 64.5524 114.551 88.5343 125.264 88.5343C135.977 88.5343 130.977 48.9785 142.405 48.9785C153.832 48.9785 152.76 66.2452 163.116 66.2452C173.472 66.2452 174.543 86.2585 188.827 86.2585C203.111 86.2585 194.184 108.565 207.753 108.565" stroke="#6C5FBC" stroke-width="1.98779" stroke-linecap="round" stroke-linejoin="round"/>
<path d="M173.092 69.9668C174.912 69.9668 176.503 71.5573 176.503 73.666C176.503 75.7747 174.912 77.3652 173.092 77.3652C171.272 77.365 169.682 75.7745 169.682 73.666C169.682 71.5575 171.272 69.9671 173.092 69.9668Z" fill="#C5BFED" stroke="#6C5FBC" stroke-width="2.22012"/>
<rect x="172.476" y="51.7686" width="25.6489" height="11.9084" rx="5.95422" fill="#6C5FBC"/>
<path d="M181.119 58.485C181.119 58.6774 181.069 58.8587 180.969 59.0289C180.873 59.1954 180.728 59.3342 180.536 59.4452C180.347 59.5525 180.123 59.6154 179.864 59.6339V60.0835H179.509V59.6283C179.139 59.595 178.841 59.484 178.616 59.2953C178.39 59.1029 178.273 58.8439 178.266 58.5183H179.098C179.121 58.7847 179.257 58.9457 179.509 59.0012V57.941C179.243 57.8744 179.028 57.8078 178.865 57.7412C178.702 57.6746 178.562 57.5673 178.443 57.4193C178.325 57.2713 178.266 57.0697 178.266 56.8143C178.266 56.4924 178.381 56.2297 178.61 56.0262C178.843 55.8227 179.143 55.7061 179.509 55.6765V55.227H179.864V55.6765C180.22 55.7061 180.503 55.8134 180.714 55.9984C180.928 56.1835 181.048 56.4388 181.074 56.7644H180.236C180.225 56.6571 180.186 56.5646 180.12 56.4869C180.057 56.4055 179.972 56.3481 179.864 56.3148V57.3638C180.142 57.4341 180.36 57.5026 180.519 57.5692C180.682 57.6321 180.823 57.7375 180.941 57.8855C181.059 58.0299 181.119 58.2297 181.119 58.485ZM179.076 56.7755C179.076 56.8976 179.113 56.9975 179.187 57.0752C179.261 57.1492 179.369 57.2103 179.509 57.2584V56.2982C179.376 56.3167 179.27 56.3666 179.193 56.448C179.115 56.5294 179.076 56.6386 179.076 56.7755ZM179.864 59.0123C180.005 58.9864 180.114 58.929 180.192 58.8402C180.273 58.7514 180.314 58.6441 180.314 58.5183C180.314 58.3962 180.275 58.2981 180.197 58.2241C180.12 58.1501 180.009 58.0891 179.864 58.041V59.0123ZM181.864 58.8124V58.2019L183.679 55.6044H184.584V58.1353H185.072V58.8124H184.584V59.6006H183.807V58.8124H181.864ZM183.857 56.4369L182.719 58.1353H183.857V56.4369ZM185.567 57.5248C185.567 56.8846 185.682 56.3833 185.911 56.0206C186.144 55.658 186.529 55.4767 187.065 55.4767C187.602 55.4767 187.985 55.658 188.214 56.0206C188.447 56.3833 188.564 56.8846 188.564 57.5248C188.564 58.1686 188.447 58.6737 188.214 59.04C187.985 59.4063 187.602 59.5895 187.065 59.5895C186.529 59.5895 186.144 59.4063 185.911 59.04C185.682 58.6737 185.567 58.1686 185.567 57.5248ZM187.798 57.5248C187.798 57.251 187.78 57.0216 187.743 56.8365C187.709 56.6478 187.639 56.4943 187.532 56.3759C187.428 56.2575 187.273 56.1983 187.065 56.1983C186.858 56.1983 186.701 56.2575 186.594 56.3759C186.49 56.4943 186.42 56.6478 186.383 56.8365C186.349 57.0216 186.333 57.251 186.333 57.5248C186.333 57.806 186.349 58.0428 186.383 58.2352C186.416 58.4239 186.486 58.5775 186.594 58.6959C186.701 58.8106 186.858 58.8679 187.065 58.8679C187.273 58.8679 187.43 58.8106 187.537 58.6959C187.645 58.5775 187.715 58.4239 187.748 58.2352C187.781 58.0428 187.798 57.806 187.798 57.5248ZM190.054 58.4628C190.084 58.6256 190.15 58.7514 190.254 58.8402C190.361 58.9253 190.504 58.9679 190.681 58.9679C190.911 58.9679 191.077 58.8735 191.181 58.6848C191.284 58.4924 191.336 58.1705 191.336 57.719C191.251 57.8374 191.131 57.9299 190.976 57.9966C190.824 58.0632 190.659 58.0965 190.482 58.0965C190.245 58.0965 190.03 58.0484 189.838 57.9521C189.649 57.8522 189.499 57.7061 189.388 57.5137C189.277 57.3176 189.222 57.0808 189.222 56.8032C189.222 56.3925 189.344 56.0669 189.588 55.8264C189.832 55.5822 190.165 55.4601 190.587 55.4601C191.112 55.4601 191.482 55.6284 191.697 55.9651C191.915 56.3019 192.025 56.8088 192.025 57.4859C192.025 57.967 191.982 58.361 191.897 58.6681C191.815 58.9753 191.673 59.2084 191.47 59.3675C191.27 59.5266 190.996 59.6061 190.648 59.6061C190.374 59.6061 190.141 59.5543 189.949 59.4507C189.756 59.3434 189.608 59.2047 189.505 59.0345C189.405 58.8605 189.347 58.67 189.333 58.4628H190.054ZM190.643 57.4637C190.835 57.4637 190.987 57.4045 191.098 57.2861C191.209 57.1677 191.264 57.0086 191.264 56.8088C191.264 56.5905 191.205 56.4221 191.087 56.3037C190.972 56.1816 190.815 56.1206 190.615 56.1206C190.415 56.1206 190.256 56.1835 190.137 56.3093C190.023 56.4314 189.965 56.5942 189.965 56.7977C189.965 56.9938 190.021 57.1548 190.132 57.2806C190.247 57.4027 190.417 57.4637 190.643 57.4637Z" fill="white"/>
<line opacity="0.09" x1="1.24771" y1="125.489" x2="207.226" y2="125.489" stroke="#6C5FBC" stroke-width="0.585257" stroke-linecap="round"/>
<line opacity="0.09" x1="1.92935" y1="100.831" x2="207.908" y2="100.831" stroke="#6C5FBC" stroke-width="0.585257" stroke-linecap="round"/>
<line opacity="0.09" x1="1.24771" y1="75.4486" x2="207.226" y2="75.4486" stroke="#6C5FBC" stroke-width="0.585257" stroke-linecap="round"/>
<g clip-path="url(#clip0_1_16840)">
<rect x="26.793" width="37.9194" height="18.2662" rx="9.13309" fill="#6C5FBC"/>
<path d="M43.0203 6.70874V11.1328H42.4385V7.83394L40.9681 11.1328H40.559L39.0821 7.82755V11.1328H38.5004V6.70874H39.1269L40.7635 10.3656L42.4002 6.70874H43.0203ZM43.7896 9.3683C43.7896 9.01028 43.8621 8.69702 44.007 8.42851C44.1519 8.15573 44.3501 7.94476 44.6015 7.79558C44.8573 7.64641 45.1407 7.57182 45.4518 7.57182C45.7587 7.57182 46.0251 7.63788 46.251 7.77001C46.4769 7.90213 46.6452 8.06836 46.756 8.26868V7.62936H47.3442V11.1328H46.756V10.4807C46.641 10.6853 46.4683 10.8558 46.2382 10.9922C46.0123 11.1243 45.748 11.1904 45.4454 11.1904C45.1343 11.1904 44.853 11.1136 44.6015 10.9602C44.3501 10.8068 44.1519 10.5915 44.007 10.3145C43.8621 10.0375 43.7896 9.72205 43.7896 9.3683ZM46.756 9.37469C46.756 9.11044 46.7028 8.88029 46.5962 8.68423C46.4896 8.48817 46.3447 8.339 46.1615 8.23671C45.9825 8.13016 45.7843 8.07688 45.5669 8.07688C45.3495 8.07688 45.1513 8.12803 44.9723 8.23032C44.7933 8.33261 44.6506 8.48178 44.544 8.67784C44.4374 8.8739 44.3842 9.10405 44.3842 9.3683C44.3842 9.63681 44.4374 9.87123 44.544 10.0715C44.6506 10.2676 44.7933 10.4189 44.9723 10.5255C45.1513 10.6278 45.3495 10.6789 45.5669 10.6789C45.7843 10.6789 45.9825 10.6278 46.1615 10.5255C46.3447 10.4189 46.4896 10.2676 46.5962 10.0715C46.7028 9.87123 46.756 9.63894 46.756 9.37469ZM48.6278 7.06037C48.517 7.06037 48.4232 7.02201 48.3465 6.94529C48.2698 6.86857 48.2315 6.77481 48.2315 6.66399C48.2315 6.55318 48.2698 6.45941 48.3465 6.38269C48.4232 6.30598 48.517 6.26762 48.6278 6.26762C48.7344 6.26762 48.8239 6.30598 48.8963 6.38269C48.9731 6.45941 49.0114 6.55318 49.0114 6.66399C49.0114 6.77481 48.9731 6.86857 48.8963 6.94529C48.8239 7.02201 48.7344 7.06037 48.6278 7.06037ZM48.9091 7.62936V11.1328H48.3274V7.62936H48.9091ZM51.6076 7.56543C52.0339 7.56543 52.3791 7.69542 52.6433 7.95541C52.9076 8.21114 53.0397 8.58194 53.0397 9.06782V11.1328H52.4643V9.15093C52.4643 8.80144 52.377 8.53506 52.2022 8.35179C52.0275 8.16425 51.7888 8.07049 51.4862 8.07049C51.1793 8.07049 50.9342 8.16639 50.751 8.35818C50.5719 8.54997 50.4824 8.82914 50.4824 9.19568V11.1328H49.9007V7.62936H50.4824V8.12803C50.5975 7.94902 50.7531 7.8105 50.9491 7.71247C51.1495 7.61444 51.369 7.56543 51.6076 7.56543Z" fill="white"/>
<path d="M83.6034 6.35947L82.2198 11.1338H81.5211L80.4114 7.29104L79.2606 11.1338L78.5688 11.1406L77.2331 6.35947H77.8975L78.9387 10.4077L80.0895 6.35947H80.7881L81.8841 10.394L82.9321 6.35947H83.6034ZM87.779 9.11309C87.779 9.23182 87.7721 9.3574 87.7584 9.48983H84.7582C84.781 9.85972 84.9066 10.1497 85.1349 10.3598C85.3678 10.5653 85.6487 10.668 85.9775 10.668C86.2469 10.668 86.4707 10.6064 86.6487 10.4831C86.8314 10.3552 86.9593 10.1862 87.0323 9.97617H87.7036C87.6032 10.3369 87.4022 10.6315 87.1008 10.8598C86.7994 11.0836 86.425 11.1954 85.9775 11.1954C85.6213 11.1954 85.3016 11.1155 85.0185 10.9557C84.7399 10.7959 84.5207 10.5698 84.3609 10.2776C84.2011 9.98074 84.1212 9.63825 84.1212 9.25009C84.1212 8.86193 84.1988 8.52173 84.3541 8.22947C84.5093 7.93721 84.7262 7.71345 85.0048 7.55819C85.2879 7.39836 85.6121 7.31844 85.9775 7.31844C86.3337 7.31844 86.6487 7.39607 86.9227 7.55134C87.1967 7.7066 87.4068 7.92123 87.5529 8.19522C87.7036 8.46464 87.779 8.7706 87.779 9.11309ZM87.1351 8.98295C87.1351 8.74549 87.0826 8.54228 86.9775 8.37331C86.8725 8.19978 86.7287 8.06964 86.546 7.98287C86.3679 7.89154 86.1693 7.84588 85.9501 7.84588C85.635 7.84588 85.3655 7.94634 85.1418 8.14727C84.9226 8.3482 84.797 8.62676 84.765 8.98295H87.1351ZM92.0952 9.11309C92.0952 9.23182 92.0883 9.3574 92.0746 9.48983H89.0744C89.0972 9.85972 89.2228 10.1497 89.4511 10.3598C89.684 10.5653 89.9649 10.668 90.2937 10.668C90.5631 10.668 90.7868 10.6064 90.9649 10.4831C91.1476 10.3552 91.2755 10.1862 91.3485 9.97617H92.0198C91.9193 10.3369 91.7184 10.6315 91.417 10.8598C91.1156 11.0836 90.7412 11.1954 90.2937 11.1954C89.9375 11.1954 89.6178 11.1155 89.3347 10.9557C89.0561 10.7959 88.8369 10.5698 88.6771 10.2776C88.5173 9.98074 88.4374 9.63825 88.4374 9.25009C88.4374 8.86193 88.515 8.52173 88.6702 8.22947C88.8255 7.93721 89.0424 7.71345 89.321 7.55819C89.6041 7.39836 89.9283 7.31844 90.2937 7.31844C90.6498 7.31844 90.9649 7.39607 91.2389 7.55134C91.5129 7.7066 91.723 7.92123 91.8691 8.19522C92.0198 8.46464 92.0952 8.7706 92.0952 9.11309ZM91.4513 8.98295C91.4513 8.74549 91.3988 8.54228 91.2937 8.37331C91.1887 8.19978 91.0448 8.06964 90.8622 7.98287C90.6841 7.89154 90.4854 7.84588 90.2663 7.84588C89.9512 7.84588 89.6817 7.94634 89.458 8.14727C89.2388 8.3482 89.1132 8.62676 89.0812 8.98295H91.4513ZM95.0825 11.1338L93.6098 9.47613V11.1338H92.9864V6.06493H93.6098V9.0446L95.0551 7.38009H95.925L94.1578 9.25009L95.9319 11.1338H95.0825ZM97.2035 6.06493V11.1338H96.5802V6.06493H97.2035ZM101.567 7.38009L99.307 12.901H98.6632L99.4029 11.0927L97.8891 7.38009H98.581L99.7591 10.4214L100.924 7.38009H101.567Z" fill="#828282"/>
<path d="M125.004 6.39372V11.1338H124.38V7.59928L122.805 11.1338H122.366L120.784 7.59243V11.1338H120.161V6.39372H120.832L122.586 10.3118L124.339 6.39372H125.004ZM127.766 11.1954C127.415 11.1954 127.095 11.1155 126.807 10.9557C126.524 10.7959 126.3 10.5698 126.136 10.2776C125.976 9.98074 125.896 9.63825 125.896 9.25009C125.896 8.8665 125.978 8.52858 126.143 8.23632C126.312 7.93949 126.54 7.71345 126.828 7.55819C127.116 7.39836 127.437 7.31844 127.794 7.31844C128.15 7.31844 128.472 7.39836 128.76 7.55819C129.047 7.71345 129.273 7.93721 129.438 8.22947C129.607 8.52173 129.691 8.86193 129.691 9.25009C129.691 9.63825 129.604 9.98074 129.431 10.2776C129.262 10.5698 129.031 10.7959 128.739 10.9557C128.447 11.1155 128.122 11.1954 127.766 11.1954ZM127.766 10.6475C127.99 10.6475 128.2 10.5949 128.396 10.4899C128.593 10.3849 128.75 10.2273 128.869 10.0173C128.992 9.80721 129.054 9.55148 129.054 9.25009C129.054 8.9487 128.995 8.69297 128.876 8.48291C128.757 8.27285 128.602 8.11759 128.41 8.01712C128.218 7.91209 128.011 7.85958 127.787 7.85958C127.559 7.85958 127.348 7.91209 127.157 8.01712C126.969 8.11759 126.819 8.27285 126.705 8.48291C126.59 8.69297 126.533 8.9487 126.533 9.25009C126.533 9.55605 126.588 9.81406 126.698 10.0241C126.812 10.2342 126.963 10.3917 127.15 10.4968C127.337 10.5972 127.543 10.6475 127.766 10.6475ZM132.408 7.31159C132.865 7.31159 133.235 7.45087 133.518 7.72943C133.801 8.00342 133.942 8.40071 133.942 8.9213V11.1338H133.326V9.01035C133.326 8.63589 133.232 8.35048 133.045 8.15412C132.858 7.95319 132.602 7.85273 132.278 7.85273C131.949 7.85273 131.687 7.95547 131.49 8.16097C131.298 8.36646 131.202 8.66557 131.202 9.05829V11.1338H130.579V7.38009H131.202V7.91438C131.326 7.72258 131.492 7.57417 131.703 7.46914C131.917 7.36411 132.152 7.31159 132.408 7.31159ZM135.789 7.89383V10.1063C135.789 10.289 135.828 10.4191 135.906 10.4968C135.984 10.5698 136.118 10.6064 136.31 10.6064H136.769V11.1338H136.207C135.86 11.1338 135.6 11.0539 135.426 10.894C135.253 10.7342 135.166 10.4716 135.166 10.1063V7.89383H134.68V7.38009H135.166V6.43482H135.789V7.38009H136.769V7.89383H135.789ZM138.216 6.06493V11.1338H137.593V6.06493H138.216ZM142.58 7.38009L140.32 12.901H139.676L140.415 11.0927L138.902 7.38009H139.594L140.772 10.4214L141.936 7.38009H142.58Z" fill="#828282"/>
<path d="M164.095 6.35947L162.54 9.33229V11.1338H161.917V9.33229L160.355 6.35947H161.047L162.225 8.77745L163.403 6.35947H164.095ZM168.246 9.11309C168.246 9.23182 168.239 9.3574 168.225 9.48983H165.225C165.248 9.85972 165.373 10.1497 165.602 10.3598C165.835 10.5653 166.115 10.668 166.444 10.668C166.714 10.668 166.937 10.6064 167.116 10.4831C167.298 10.3552 167.426 10.1862 167.499 9.97617H168.17C168.07 10.3369 167.869 10.6315 167.568 10.8598C167.266 11.0836 166.892 11.1954 166.444 11.1954C166.088 11.1954 165.768 11.1155 165.485 10.9557C165.207 10.7959 164.988 10.5698 164.828 10.2776C164.668 9.98074 164.588 9.63825 164.588 9.25009C164.588 8.86193 164.666 8.52173 164.821 8.22947C164.976 7.93721 165.193 7.71345 165.472 7.55819C165.755 7.39836 166.079 7.31844 166.444 7.31844C166.8 7.31844 167.116 7.39607 167.39 7.55134C167.664 7.7066 167.874 7.92123 168.02 8.19522C168.17 8.46464 168.246 8.7706 168.246 9.11309ZM167.602 8.98295C167.602 8.74549 167.549 8.54228 167.444 8.37331C167.339 8.19978 167.195 8.06964 167.013 7.98287C166.835 7.89154 166.636 7.84588 166.417 7.84588C166.102 7.84588 165.832 7.94634 165.609 8.14727C165.389 8.3482 165.264 8.62676 165.232 8.98295H167.602ZM168.904 9.24324C168.904 8.85965 168.982 8.52401 169.137 8.23632C169.292 7.94406 169.505 7.71801 169.774 7.55819C170.048 7.39836 170.352 7.31844 170.685 7.31844C171.014 7.31844 171.299 7.38922 171.541 7.53079C171.783 7.67235 171.964 7.85044 172.082 8.06507V7.38009H172.713V11.1338H172.082V10.4351C171.959 10.6543 171.774 10.837 171.528 10.9831C171.286 11.1247 171.002 11.1954 170.678 11.1954C170.345 11.1954 170.044 11.1132 169.774 10.9488C169.505 10.7844 169.292 10.5538 169.137 10.257C168.982 9.96019 168.904 9.62226 168.904 9.24324ZM172.082 9.25009C172.082 8.96696 172.025 8.72037 171.911 8.51031C171.797 8.30025 171.642 8.14042 171.445 8.03082C171.254 7.91666 171.041 7.85958 170.808 7.85958C170.576 7.85958 170.363 7.91438 170.171 8.02397C169.98 8.13357 169.827 8.2934 169.712 8.50346C169.598 8.71352 169.541 8.96011 169.541 9.24324C169.541 9.53093 169.598 9.78209 169.712 9.99672C169.827 10.2068 169.98 10.3689 170.171 10.4831C170.363 10.5927 170.576 10.6475 170.808 10.6475C171.041 10.6475 171.254 10.5927 171.445 10.4831C171.642 10.3689 171.797 10.2068 171.911 9.99672C172.025 9.78209 172.082 9.53322 172.082 9.25009ZM174.458 7.98972C174.567 7.7751 174.723 7.60842 174.924 7.48969C175.129 7.37096 175.378 7.31159 175.67 7.31159V7.95547H175.506C174.807 7.95547 174.458 8.3345 174.458 9.09254V11.1338H173.835V7.38009H174.458V7.98972ZM177.082 6.06493V11.1338H176.458V6.06493H177.082ZM181.446 7.38009L179.185 12.901H178.541L179.281 11.0927L177.767 7.38009H178.459L179.637 10.4214L180.802 7.38009H181.446Z" fill="#828282"/>
</g>
<defs>
<clipPath id="clip0_1_16840">
<rect x="26.793" width="159.389" height="18.2662" rx="9.13309" fill="white"/>
</clipPath>
</defs>
</svg>
